HIERARCHY
ROOT Hips
{
  OFFSET 52.6098 86.8214 4.58155
  CHANNELS 6 Xposition Yposition Zposition Zrotation Xrotation Yrotation
  JOINT spine
  {
    OFFSET 0 6.84637 0.3937
    CHANNELS 3 Zrotation Xrotation Yrotation
    JOINT spine1
    {
      OFFSET 0 9.49621 0
      CHANNELS 3 Zrotation Xrotation Yrotation
      JOINT spine2
      {
        OFFSET 0 9.09909 0
        CHANNELS 3 Zrotation Xrotation Yrotation
        JOINT Neck
        {
          OFFSET 0 23.3612 1.11378
          CHANNELS 3 Zrotation Xrotation Yrotation
          JOINT Head
          {
            OFFSET 0 7.05802 0
            CHANNELS 3 Zrotation Xrotation Yrotation
            End Site
            {
              OFFSET 0 17.0844 -5.63419
            }
          }
        }
        JOINT RightShoulder
        {
          OFFSET -3.83136 9.82631 -0.533491
          CHANNELS 3 Zrotation Xrotation Yrotation
          JOINT RightArm
          {
            OFFSET 0 12.8881 0
            CHANNELS 3 Zrotation Xrotation Yrotation
            JOINT RightArmRoll
            {
              OFFSET 0 6.50617 0
              CHANNELS 3 Zrotation Xrotation Yrotation
              JOINT RightForeArm
              {
                OFFSET 0 18.9501 0
                CHANNELS 3 Zrotation Xrotation Yrotation
                JOINT RightForeArmRoll
                {
                  OFFSET 0 7.30092 0
                  CHANNELS 3 Zrotation Xrotation Yrotation
                  JOINT RightHand
                  {
                    OFFSET 0 14.6514 0
                    CHANNELS 3 Zrotation Xrotation Yrotation
                    End Site
                    {
                      OFFSET 0 0 0
                    }
                  }
                }
              }
            }
          }
        }
        JOINT LeftShoulder
        {
          OFFSET 3.83136 9.82631 -0.533491
          CHANNELS 3 Zrotation Xrotation Yrotation
          JOINT LeftArm
          {
            OFFSET 0 12.8881 0
            CHANNELS 3 Zrotation Xrotation Yrotation
            JOINT LeftArmRoll
            {
              OFFSET 0 6.50617 0
              CHANNELS 3 Zrotation Xrotation Yrotation
              JOINT LeftForeArm
              {
                OFFSET 0 18.9501 0
                CHANNELS 3 Zrotation Xrotation Yrotation
                JOINT LeftForeArmRoll
                {
                  OFFSET 0 7.30093 0
                  CHANNELS 3 Zrotation Xrotation Yrotation
                  JOINT LeftHand
                  {
                    OFFSET 0 14.6514 0
                    CHANNELS 3 Zrotation Xrotation Yrotation
                    End Site
                    {
                      OFFSET 0 0 0
                    }
                  }
                }
              }
            }
          }
        }
      }
    }
  }
  JOINT RightUpLeg
  {
    OFFSET -6.06837 -1.11278 -0.933477
    CHANNELS 3 Zrotation Xrotation Yrotation
    JOINT RightUpLegRoll
    {
      OFFSET 0 17.1796 0
      CHANNELS 3 Zrotation Xrotation Yrotation
      JOINT RightLeg
      {
        OFFSET 0 -21.2743 0
        CHANNELS 3 Zrotation Xrotation Yrotation
        JOINT RightLegRoll
        {
          OFFSET 0 21.3439 0
          CHANNELS 3 Zrotation Xrotation Yrotation
          JOINT RightFoot
          {
            OFFSET 0 17.7652 0
            CHANNELS 3 Zrotation Xrotation Yrotation
            JOINT RightToeBase
            {
              OFFSET 0 14.8508 0
              CHANNELS 3 Zrotation Xrotation Yrotation
              End Site
              {
                OFFSET 0.0062947 7.19214 -0.829005
              }
            }
          }
        }
      }
    }
  }
  JOINT LeftUpLeg
  {
    OFFSET 6.06837 -1.11278 -0.933477
    CHANNELS 3 Zrotation Xrotation Yrotation
    JOINT LeftUpLegRoll
    {
      OFFSET 0 17.1797 0
      CHANNELS 3 Zrotation Xrotation Yrotation
      JOINT LeftLeg
      {
        OFFSET 0 21.2742 0
        CHANNELS 3 Zrotation Xrotation Yrotation
        JOINT LeftLegRoll
        {
          OFFSET 0 21.5412 0
          CHANNELS 3 Zrotation Xrotation Yrotation
          JOINT LeftFoot
          {
            OFFSET 0 17.5679 0
            CHANNELS 3 Zrotation Xrotation Yrotation
            JOINT LeftToeBase
            {
              OFFSET 0 14.8508 0
              CHANNELS 3 Zrotation Xrotation Yrotation
              End Site
              {
                OFFSET -0.0282102 7.19213 -0.829005
              }
            }
          }
        }
      }
    }
  }
}
MOTION
Frames: 4
Frame Time: 0.00208333
52.7499 86.6765 3.75726 0.551627 -1.91726 -1.29317 1.61116 -1.57262 0.703242 3.25433 0.872671 1.24038 3.2417 2.51606 1.18645 -15.5332 6.17594 -2.1874 18.4984 9.60189 -5.91875 49.68 -5.95123 -3.15439 108.509 17.858 8.0338 9.01048e-007 -5.65789e-011 -3.54326e-006 19.2573 5.71833 -0.526673 -1.01133e-005 -2.45118e-006 -3 8.02932 -4.95141 0.697703 -72.6536 -8.6541 5.61686 -98.4721 24.1834 -18.9807 -1.12321e-005 3.03428e-007 5.71912e-006 -19.3317 3.02803 -0.181813 5.91669e-006 -4.52211e-006 3.00142 -8.02932 -4.95142 -0.697703 177.036 14.4466 0.224201 180 7.01542e-015 178.901 175.232 23.4589 -179.465 -1.97482e-006 -6.73334e-007 0.467915 -22.2695 70.3764 21.8521 8.13649 25.2327 -3.48774 179.937 11.814 1.86793 4.54188e-006 -4.6773e-006 -1.13744 -1.25411 -24.4107 0.529871 3.15761e-006 -4.01226e-006 -0.767499 24.168 73.7681 -25.9201 -8.13649 25.2327 3.48774 
52.7369 86.6841 3.77082 0.551289 -1.91211 -1.29057 1.61116 -1.57314 0.703599 3.25385 0.870929 1.24116 3.24162 2.51431 1.18722 -15.5578 6.17511 -2.18961 18.5132 9.61336 -5.92896 49.6676 -5.94919 -3.15201 108.519 17.8683 8.0762 9.01048e-007 -5.65725e-011 -3.54326e-006 19.243 5.58929 -0.501714 -1.01133e-005 -2.45118e-006 -3 8.02932 -4.95141 0.697703 -72.6562 -8.65628 5.61794 -98.4609 24.185 -18.9476 -1.12321e-005 3.03428e-007 5.71912e-006 -19.3516 3.06973 -0.172997 5.91669e-006 -4.52211e-006 3.00142 -8.02932 -4.95142 -0.697703 177.053 14.4542 0.194071 180 7.01542e-015 178.901 175.254 23.4587 -179.472 -1.97482e-006 -6.73334e-007 0.469632 -22.2557 70.3761 21.8509 8.13649 25.2327 -3.48774 179.939 11.8197 1.86906 4.54188e-006 -4.6773e-006 -1.13738 -1.25336 -24.409 0.530217 3.15761e-006 -4.01226e-006 -0.767499 24.1631 73.766 -25.9178 -8.13649 25.2327 3.48774 
52.7404 86.679 3.76224 0.550866 -1.90694 -1.28801 1.61117 -1.57363 0.703929 3.25339 0.8692 1.24188 3.24158 2.51258 1.18794 -15.582 6.17402 -2.1916 18.5277 9.62512 -5.93887 49.6554 -5.94724 -3.1497 108.526 17.8798 8.12727 9.01048e-007 -5.65693e-011 -3.54326e-006 19.2268 5.44852 -0.474878 -1.01133e-005 -2.45118e-006 -3 8.02932 -4.95141 0.697703 -72.659 -8.65854 5.61906 -98.4495 24.1868 -18.9147 -1.12321e-005 3.03428e-007 5.71912e-006 -19.3714 3.11146 -0.164179 5.91669e-006 -4.52211e-006 3.00142 -8.02932 -4.95142 -0.697703 177.071 14.4619 0.162849 180 7.01542e-015 178.901 175.277 23.4582 -179.479 -1.97482e-006 -6.73334e-007 0.47141 -22.2413 70.3758 21.8495 8.13649 25.2327 -3.48774 179.941 11.8253 1.87015 4.54188e-006 -4.6773e-006 -1.13732 -1.25259 -24.4072 0.530571 3.15761e-006 -4.01226e-006 -0.767499 24.1583 73.7639 -25.9156 -8.13649 25.2327 3.48774 
52.7427 86.6773 3.75659 0.550383 -1.90176 -1.28549 1.61119 -1.5741 0.70424 3.25293 0.86748 1.24257 3.24158 2.51086 1.18862 -15.6059 6.17274 -2.19344 18.5419 9.63708 -5.94857 49.6433 -5.94534 -3.14744 108.531 17.8923 8.18439 9.01048e-007 -5.65789e-011 -3.54326e-006 19.2093 5.29955 -0.446734 -1.01133e-005 -2.45118e-006 -3 8.02932 -4.95141 0.697703 -72.662 -8.66085 5.62021 -98.438 24.1888 -18.8819 -1.12321e-005 3.03428e-007 5.71912e-006 -19.3912 3.15319 -0.155359 5.91669e-006 -4.52211e-006 3.00142 -8.02932 -4.95142 -0.697703 177.089 14.4695 0.130861 180 7.01542e-015 178.901 175.3 23.4575 -179.486 -1.97482e-006 -6.73334e-007 0.473229 -22.2264 70.3753 21.848 8.13649 25.2327 -3.48774 179.942 11.8307 1.87122 4.54188e-006 -4.6773e-006 -1.13726 -1.2518 -24.4053 0.530932 3.15761e-006 -4.01226e-006 -0.767499 24.1535 73.7617 -25.9135 -8.13649 25.2327 3.48774 
